<?xml version="1.0" encoding="utf-8"?>
<!-- Generator: Adobe Illustrator 23.0.4, SVG Export Plug-In . SVG Version: 6.00 Build 0)  -->
<svg version="1.1"
	 id="svg3857" xmlns:cc="http://creativecommons.org/ns#" xmlns:dc="http://purl.org/dc/elements/1.1/" xmlns:inkscape="http://www.inkscape.org/namespaces/inkscape" xmlns:rdf="http://www.w3.org/1999/02/22-rdf-syntax-ns#" xmlns:sodipodi="http://sodipodi.sourceforge.net/DTD/sodipodi-0.dtd" xmlns:svg="http://www.w3.org/2000/svg"
	 xmlns="http://www.w3.org/2000/svg" xmlns:xlink="http://www.w3.org/1999/xlink" x="0px" y="0px" viewBox="0 0 869.5 720.9"
	 style="enable-background:new 0 0 869.5 720.9;" xml:space="preserve">
<style type="text/css">
	.st0{fill:none;stroke:#000000;stroke-miterlimit:10;}
	.st1{fill:#FFFFFF;}
	
		.st2{fill:none;stroke:#666666;stroke-width:2.5;stroke-linecap:round;stroke-linejoin:round;stroke-miterlimit:10;stroke-opacity:0.698;}
	
		.st3{fill:none;stroke:#000000;stroke-width:2.5;stroke-linecap:round;stroke-linejoin:round;stroke-miterlimit:10;stroke-opacity:0.698;}
	.st4{fill:#E96A00;stroke:#000000;stroke-width:2;stroke-miterlimit:10;}
	.st5{font-family:'MyriadPro-Regular';}
	.st6{font-size:26px;}
	.st7{fill-rule:evenodd;clip-rule:evenodd;fill-opacity:0.698;}
	.st8{fill:none;stroke:#E96A00;stroke-width:2;stroke-miterlimit:10;}
	.st9{fill:#E96A00;}
	.st10{font-size:23px;}
</style>
<sodipodi:namedview  bordercolor="#666666" borderopacity="1" fit-margin-bottom="0" fit-margin-left="0" fit-margin-right="0" fit-margin-top="0" gridtolerance="10" guidetolerance="10" id="namedview3859" inkscape:current-layer="layer0" inkscape:cx="150.14398" inkscape:cy="826.45943" inkscape:pageopacity="0" inkscape:pageshadow="2" inkscape:window-height="705" inkscape:window-maximized="1" inkscape:window-width="1366" inkscape:window-x="-8" inkscape:window-y="-8" inkscape:zoom="1.3141509" objecttolerance="10" pagecolor="#ffffff" showgrid="false">
	</sodipodi:namedview>
<g>
	<g id="g2349">
		<g id="g2347">
			<path id="path2345" inkscape:connector-curvature="0" class="st0" d="M445.8,74.8v570"/>
		</g>
	</g>
</g>
<g>
	<g id="g2376">
		<g id="g2374">
			<path id="path2372" inkscape:connector-curvature="0" class="st0" d="M162.7,359.1h566.6"/>
		</g>
	</g>
</g>
<g>
	<g id="g2565">
		<g id="g2563">
			<path id="path2561" inkscape:connector-curvature="0" class="st1" d="M155.8,380.1v-1.4h8.2v1.4H155.8z M172.6,385.5h-1.8V374
				c-0.4,0.4-1,0.8-1.7,1.2c-0.7,0.4-1.3,0.7-1.9,0.9v-1.7c1-0.5,1.9-1.1,2.6-1.7c0.8-0.7,1.3-1.3,1.6-2h1.1L172.6,385.5z"/>
		</g>
	</g>
</g>
<g>
	<g id="g2574">
		<g id="g2572">
			<path id="path2570" inkscape:connector-curvature="0" class="st1" d="M152.3,380.1v-1.4h8.2v1.4H152.3z M169.2,385.5h-1.8V374
				c-0.4,0.4-1,0.8-1.7,1.2c-0.7,0.4-1.3,0.7-1.9,0.9v-1.7c1-0.5,1.9-1.1,2.6-1.7c0.8-0.7,1.3-1.3,1.6-2h1.1L169.2,385.5z"/>
		</g>
	</g>
</g>
<g>
	<g id="g2583">
		<g id="g2581">
			<path id="path2579" inkscape:connector-curvature="0" class="st1" d="M154,381.8v-1.4h8.2v1.4H154z M170.9,387.2h-1.8v-11.5
				c-0.4,0.4-1,0.8-1.7,1.2c-0.7,0.4-1.3,0.7-1.9,0.9v-1.7c1-0.5,1.9-1.1,2.6-1.7c0.8-0.7,1.3-1.3,1.6-2h1.1L170.9,387.2z"/>
		</g>
	</g>
</g>
<g>
	<g id="g2592">
		<g id="g2590">
			<path id="path2588" inkscape:connector-curvature="0" class="st1" d="M154,378.4V377h8.2v1.4H154z M170.9,383.8h-1.8v-11.5
				c-0.4,0.4-1,0.8-1.7,1.2c-0.7,0.4-1.3,0.7-1.9,0.9v-1.7c1-0.5,1.9-1.1,2.6-1.7c0.8-0.7,1.3-1.3,1.6-2h1.1L170.9,383.8z"/>
		</g>
	</g>
</g>
<g>
	<g id="g2601">
		<g id="g2599">
			<path id="path2597" inkscape:connector-curvature="0" d="M154,380.1v-1.4h8.2v1.4H154z M170.9,385.5h-1.8V374
				c-0.4,0.4-1,0.8-1.7,1.2c-0.7,0.4-1.3,0.7-1.9,0.9v-1.7c1-0.5,1.9-1.1,2.6-1.7c0.8-0.7,1.3-1.3,1.6-2h1.1L170.9,385.5z"/>
		</g>
	</g>
</g>
<g>
	<g id="g2610">
		<g id="g2608">
			<path id="path2606" inkscape:connector-curvature="0" class="st0" d="M162.6,359.1v5.1"/>
		</g>
	</g>
</g>
<g>
	<g id="g2619">
		<g id="g2617">
			<path id="path2615" inkscape:connector-curvature="0" class="st1" d="M287.5,380.1v-1.4h8.2v1.4H287.5z M297.6,378.3
				c0-1.8,0.2-3.2,0.5-4.2c0.4-1,0.9-1.9,1.6-2.4c0.7-0.6,1.6-0.9,2.7-0.9c0.8,0,1.5,0.2,2.1,0.5c0.6,0.3,1.1,0.8,1.5,1.4
				c0.4,0.6,0.7,1.3,0.9,2.2c0.2,0.9,0.3,2,0.3,3.5c0,1.7-0.2,3.1-0.5,4.2c-0.4,1-0.9,1.9-1.6,2.4c-0.7,0.6-1.6,0.9-2.7,0.9
				c-1.4,0-2.5-0.5-3.4-1.5C298,383,297.6,381,297.6,378.3L297.6,378.3z M299.4,378.3c0,2.4,0.3,4,0.9,4.8c0.6,0.8,1.3,1.2,2.1,1.2
				c0.8,0,1.5-0.4,2.1-1.2c0.6-0.8,0.9-2.4,0.9-4.8c0-2.4-0.3-4-0.9-4.8c-0.6-0.8-1.3-1.2-2.1-1.2c-0.8,0-1.5,0.3-2,1
				C299.7,374.2,299.4,375.9,299.4,378.3L299.4,378.3z M310,385.5v-2.1h2.1v2.1H310z M314.7,381.7l1.9-0.2c0.1,0.9,0.5,1.6,1,2.1
				c0.5,0.5,1.1,0.7,1.8,0.7c0.9,0,1.6-0.3,2.2-1c0.6-0.7,0.9-1.5,0.9-2.6c0-1-0.3-1.9-0.9-2.4c-0.6-0.6-1.3-0.9-2.3-0.9
				c-0.6,0-1.1,0.1-1.6,0.4c-0.5,0.3-0.8,0.6-1.1,1l-1.7-0.2l1.4-7.5h7.3v1.7h-5.9l-0.8,4c0.9-0.6,1.8-0.9,2.8-0.9
				c1.3,0,2.4,0.4,3.3,1.3c0.9,0.9,1.3,2,1.3,3.4c0,1.3-0.4,2.5-1.2,3.5c-0.9,1.2-2.2,1.8-3.8,1.8c-1.3,0-2.4-0.4-3.3-1.1
				C315.3,383.9,314.8,382.9,314.7,381.7L314.7,381.7z"/>
		</g>
	</g>
</g>
<g>
	<g id="g2628">
		<g id="g2626">
			<path id="path2624" inkscape:connector-curvature="0" class="st1" d="M284.1,380.1v-1.4h8.2v1.4H284.1z M294.1,378.3
				c0-1.8,0.2-3.2,0.5-4.2c0.4-1,0.9-1.9,1.6-2.4c0.7-0.6,1.6-0.9,2.7-0.9c0.8,0,1.5,0.2,2.1,0.5c0.6,0.3,1.1,0.8,1.5,1.4
				c0.4,0.6,0.7,1.3,0.9,2.2c0.2,0.9,0.3,2,0.3,3.5c0,1.7-0.2,3.1-0.5,4.2c-0.4,1-0.9,1.9-1.6,2.4c-0.7,0.6-1.6,0.9-2.7,0.9
				c-1.4,0-2.5-0.5-3.4-1.5C294.6,383,294.1,381,294.1,378.3L294.1,378.3z M296,378.3c0,2.4,0.3,4,0.9,4.8c0.6,0.8,1.3,1.2,2.1,1.2
				c0.8,0,1.5-0.4,2.1-1.2c0.6-0.8,0.9-2.4,0.9-4.8c0-2.4-0.3-4-0.9-4.8c-0.6-0.8-1.3-1.2-2.1-1.2c-0.8,0-1.5,0.3-2,1
				C296.3,374.2,296,375.9,296,378.3L296,378.3z M306.6,385.5v-2.1h2.1v2.1H306.6z M311.3,381.7l1.9-0.2c0.1,0.9,0.5,1.6,1,2.1
				c0.5,0.5,1.1,0.7,1.8,0.7c0.9,0,1.6-0.3,2.2-1c0.6-0.7,0.9-1.5,0.9-2.6c0-1-0.3-1.9-0.9-2.4c-0.6-0.6-1.3-0.9-2.3-0.9
				c-0.6,0-1.1,0.1-1.6,0.4c-0.5,0.3-0.8,0.6-1.1,1l-1.7-0.2l1.4-7.5h7.3v1.7h-5.9l-0.8,4c0.9-0.6,1.8-0.9,2.8-0.9
				c1.3,0,2.4,0.4,3.3,1.3c0.9,0.9,1.3,2,1.3,3.4c0,1.3-0.4,2.5-1.2,3.5c-0.9,1.2-2.2,1.8-3.8,1.8c-1.3,0-2.4-0.4-3.3-1.1
				C311.9,383.9,311.4,382.9,311.3,381.7L311.3,381.7z"/>
		</g>
	</g>
</g>
<g>
	<g id="g2637">
		<g id="g2635">
			<path id="path2633" inkscape:connector-curvature="0" class="st1" d="M285.8,381.8v-1.4h8.2v1.4H285.8z M295.8,380
				c0-1.8,0.2-3.2,0.5-4.2c0.4-1,0.9-1.9,1.6-2.4c0.7-0.6,1.6-0.9,2.7-0.9c0.8,0,1.5,0.2,2.1,0.5c0.6,0.3,1.1,0.8,1.5,1.4
				c0.4,0.6,0.7,1.3,0.9,2.2c0.2,0.9,0.3,2,0.3,3.5c0,1.7-0.2,3.1-0.5,4.2c-0.4,1-0.9,1.9-1.6,2.4c-0.7,0.6-1.6,0.9-2.7,0.9
				c-1.4,0-2.5-0.5-3.4-1.5C296.3,384.7,295.8,382.8,295.8,380L295.8,380z M297.7,380c0,2.4,0.3,4,0.9,4.8c0.6,0.8,1.3,1.2,2.1,1.2
				c0.8,0,1.5-0.4,2.1-1.2c0.6-0.8,0.9-2.4,0.9-4.8c0-2.4-0.3-4-0.9-4.8c-0.6-0.8-1.3-1.2-2.1-1.2c-0.8,0-1.5,0.3-2,1
				C298,375.9,297.7,377.6,297.7,380L297.7,380z M308.3,387.2v-2.1h2.1v2.1H308.3z M313,383.4l1.9-0.2c0.1,0.9,0.5,1.6,1,2.1
				c0.5,0.5,1.1,0.7,1.8,0.7c0.9,0,1.6-0.3,2.2-1c0.6-0.7,0.9-1.5,0.9-2.6c0-1-0.3-1.9-0.9-2.4c-0.6-0.6-1.3-0.9-2.3-0.9
				c-0.6,0-1.1,0.1-1.6,0.4c-0.5,0.3-0.8,0.6-1.1,1l-1.7-0.2l1.4-7.5h7.3v1.7h-5.9l-0.8,4c0.9-0.6,1.8-0.9,2.8-0.9
				c1.3,0,2.4,0.4,3.3,1.3c0.9,0.9,1.3,2,1.3,3.4c0,1.3-0.4,2.5-1.2,3.5c-0.9,1.2-2.2,1.8-3.8,1.8c-1.3,0-2.4-0.4-3.3-1.1
				C313.6,385.6,313.1,384.6,313,383.4L313,383.4z"/>
		</g>
	</g>
</g>
<g>
	<g id="g2646">
		<g id="g2644">
			<path id="path2642" inkscape:connector-curvature="0" class="st1" d="M285.8,378.4V377h8.2v1.4H285.8z M295.8,376.6
				c0-1.8,0.2-3.2,0.5-4.2c0.4-1,0.9-1.9,1.6-2.4c0.7-0.6,1.6-0.9,2.7-0.9c0.8,0,1.5,0.2,2.1,0.5c0.6,0.3,1.1,0.8,1.5,1.4
				c0.4,0.6,0.7,1.3,0.9,2.2c0.2,0.9,0.3,2,0.3,3.5c0,1.7-0.2,3.1-0.5,4.2c-0.4,1-0.9,1.9-1.6,2.4c-0.7,0.6-1.6,0.9-2.7,0.9
				c-1.4,0-2.5-0.5-3.4-1.5C296.3,381.3,295.8,379.3,295.8,376.6L295.8,376.6z M297.7,376.6c0,2.4,0.3,4,0.9,4.8
				c0.6,0.8,1.3,1.2,2.1,1.2c0.8,0,1.5-0.4,2.1-1.2c0.6-0.8,0.9-2.4,0.9-4.8c0-2.4-0.3-4-0.9-4.8c-0.6-0.8-1.3-1.2-2.1-1.2
				c-0.8,0-1.5,0.3-2,1C298,372.5,297.7,374.1,297.7,376.6L297.7,376.6z M308.3,383.8v-2.1h2.1v2.1H308.3z M313,380l1.9-0.2
				c0.1,0.9,0.5,1.6,1,2.1c0.5,0.5,1.1,0.7,1.8,0.7c0.9,0,1.6-0.3,2.2-1c0.6-0.7,0.9-1.5,0.9-2.6c0-1-0.3-1.9-0.9-2.4
				c-0.6-0.6-1.3-0.9-2.3-0.9c-0.6,0-1.1,0.1-1.6,0.4c-0.5,0.3-0.8,0.6-1.1,1l-1.7-0.2l1.4-7.5h7.3v1.7h-5.9l-0.8,4
				c0.9-0.6,1.8-0.9,2.8-0.9c1.3,0,2.4,0.4,3.3,1.3c0.9,0.9,1.3,2,1.3,3.4c0,1.3-0.4,2.5-1.2,3.5c-0.9,1.2-2.2,1.8-3.8,1.8
				c-1.3,0-2.4-0.4-3.3-1.1C313.6,382.2,313.1,381.2,313,380L313,380z"/>
		</g>
	</g>
</g>
<g>
	<g id="g2655">
		<g id="g2653">
			<path id="path2651" inkscape:connector-curvature="0" d="M285.8,380.1v-1.4h8.2v1.4H285.8z M295.8,378.3c0-1.8,0.2-3.2,0.5-4.2
				c0.4-1,0.9-1.9,1.6-2.4c0.7-0.6,1.6-0.9,2.7-0.9c0.8,0,1.5,0.2,2.1,0.5c0.6,0.3,1.1,0.8,1.5,1.4c0.4,0.6,0.7,1.3,0.9,2.2
				c0.2,0.9,0.3,2,0.3,3.5c0,1.7-0.2,3.1-0.5,4.2c-0.4,1-0.9,1.9-1.6,2.4c-0.7,0.6-1.6,0.9-2.7,0.9c-1.4,0-2.5-0.5-3.4-1.5
				C296.3,383,295.8,381,295.8,378.3L295.8,378.3z M297.7,378.3c0,2.4,0.3,4,0.9,4.8c0.6,0.8,1.3,1.2,2.1,1.2c0.8,0,1.5-0.4,2.1-1.2
				c0.6-0.8,0.9-2.4,0.9-4.8c0-2.4-0.3-4-0.9-4.8c-0.6-0.8-1.3-1.2-2.1-1.2c-0.8,0-1.5,0.3-2,1C298,374.2,297.7,375.9,297.7,378.3
				L297.7,378.3z M308.3,385.5v-2.1h2.1v2.1H308.3z M313,381.7l1.9-0.2c0.1,0.9,0.5,1.6,1,2.1c0.5,0.5,1.1,0.7,1.8,0.7
				c0.9,0,1.6-0.3,2.2-1c0.6-0.7,0.9-1.5,0.9-2.6c0-1-0.3-1.9-0.9-2.4c-0.6-0.6-1.3-0.9-2.3-0.9c-0.6,0-1.1,0.1-1.6,0.4
				c-0.5,0.3-0.8,0.6-1.1,1l-1.7-0.2l1.4-7.5h7.3v1.7h-5.9l-0.8,4c0.9-0.6,1.8-0.9,2.8-0.9c1.3,0,2.4,0.4,3.3,1.3
				c0.9,0.9,1.3,2,1.3,3.4c0,1.3-0.4,2.5-1.2,3.5c-0.9,1.2-2.2,1.8-3.8,1.8c-1.3,0-2.4-0.4-3.3-1.1
				C313.6,383.9,313.1,382.9,313,381.7L313,381.7z"/>
		</g>
	</g>
</g>
<g>
	<g id="g2664">
		<g id="g2662">
			<path id="path2660" inkscape:connector-curvature="0" class="st0" d="M304.5,359.1v5.1"/>
		</g>
	</g>
</g>
<g>
	<g id="g2673">
		<g id="g2671">
			<path id="path2669" inkscape:connector-curvature="0" class="st0" d="M446.3,359.1v5.1"/>
		</g>
	</g>
</g>
<g>
	<g id="g2682">
		<g id="g2680">
			<path id="path2678" inkscape:connector-curvature="0" class="st1" d="M576.4,378.3c0-1.8,0.2-3.2,0.5-4.2c0.4-1,0.9-1.9,1.6-2.4
				c0.7-0.6,1.6-0.9,2.7-0.9c0.8,0,1.5,0.2,2.1,0.5c0.6,0.3,1.1,0.8,1.5,1.4c0.4,0.6,0.7,1.3,0.9,2.2c0.2,0.9,0.3,2,0.3,3.5
				c0,1.7-0.2,3.1-0.5,4.2c-0.4,1-0.9,1.9-1.6,2.4c-0.7,0.6-1.6,0.9-2.7,0.9c-1.4,0-2.5-0.5-3.4-1.5
				C576.9,383,576.4,381,576.4,378.3L576.4,378.3z M578.2,378.3c0,2.4,0.3,4,0.9,4.8c0.6,0.8,1.3,1.2,2.1,1.2c0.8,0,1.5-0.4,2.1-1.2
				c0.6-0.8,0.9-2.4,0.9-4.8c0-2.4-0.3-4-0.9-4.8c-0.6-0.8-1.3-1.2-2.1-1.2c-0.8,0-1.5,0.3-2,1C578.5,374.2,578.2,375.9,578.2,378.3
				L578.2,378.3z M588.8,385.5v-2.1h2.1v2.1H588.8z M593.5,381.7l1.9-0.2c0.1,0.9,0.5,1.6,1,2.1c0.5,0.5,1.1,0.7,1.8,0.7
				c0.9,0,1.6-0.3,2.2-1c0.6-0.7,0.9-1.5,0.9-2.6c0-1-0.3-1.9-0.9-2.4c-0.6-0.6-1.3-0.9-2.3-0.9c-0.6,0-1.1,0.1-1.6,0.4
				c-0.5,0.3-0.8,0.6-1.1,1l-1.7-0.2l1.4-7.5h7.3v1.7h-5.9l-0.8,4c0.9-0.6,1.8-0.9,2.8-0.9c1.3,0,2.4,0.4,3.3,1.3
				c0.9,0.9,1.3,2,1.3,3.4c0,1.3-0.4,2.5-1.2,3.5c-0.9,1.2-2.2,1.8-3.8,1.8c-1.3,0-2.4-0.4-3.3-1.1
				C594.1,383.9,593.6,382.9,593.5,381.7L593.5,381.7z"/>
		</g>
	</g>
</g>
<g>
	<g id="g2691">
		<g id="g2689">
			<path id="path2687" inkscape:connector-curvature="0" class="st1" d="M573,378.3c0-1.8,0.2-3.2,0.5-4.2c0.4-1,0.9-1.9,1.6-2.4
				c0.7-0.6,1.6-0.9,2.7-0.9c0.8,0,1.5,0.2,2.1,0.5c0.6,0.3,1.1,0.8,1.5,1.4c0.4,0.6,0.7,1.3,0.9,2.2c0.2,0.9,0.3,2,0.3,3.5
				c0,1.7-0.2,3.1-0.5,4.2c-0.4,1-0.9,1.9-1.6,2.4c-0.7,0.6-1.6,0.9-2.7,0.9c-1.4,0-2.5-0.5-3.4-1.5C573.4,383,573,381,573,378.3
				L573,378.3z M574.8,378.3c0,2.4,0.3,4,0.9,4.8c0.6,0.8,1.3,1.2,2.1,1.2c0.8,0,1.5-0.4,2.1-1.2c0.6-0.8,0.9-2.4,0.9-4.8
				c0-2.4-0.3-4-0.9-4.8c-0.6-0.8-1.3-1.2-2.1-1.2c-0.8,0-1.5,0.3-2,1C575.1,374.2,574.8,375.9,574.8,378.3L574.8,378.3z
				 M585.4,385.5v-2.1h2.1v2.1H585.4z M590.1,381.7l1.9-0.2c0.1,0.9,0.5,1.6,1,2.1c0.5,0.5,1.1,0.7,1.8,0.7c0.9,0,1.6-0.3,2.2-1
				c0.6-0.7,0.9-1.5,0.9-2.6c0-1-0.3-1.9-0.9-2.4c-0.6-0.6-1.3-0.9-2.3-0.9c-0.6,0-1.1,0.1-1.6,0.4c-0.5,0.3-0.8,0.6-1.1,1l-1.7-0.2
				l1.4-7.5h7.3v1.7h-5.9l-0.8,4c0.9-0.6,1.8-0.9,2.8-0.9c1.3,0,2.4,0.4,3.3,1.3c0.9,0.9,1.3,2,1.3,3.4c0,1.3-0.4,2.5-1.2,3.5
				c-0.9,1.2-2.2,1.8-3.8,1.8c-1.3,0-2.4-0.4-3.3-1.1C590.7,383.9,590.2,382.9,590.1,381.7L590.1,381.7z"/>
		</g>
	</g>
</g>
<g>
	<g id="g2700">
		<g id="g2698">
			<path id="path2696" inkscape:connector-curvature="0" class="st1" d="M574.7,380c0-1.8,0.2-3.2,0.5-4.2c0.4-1,0.9-1.9,1.6-2.4
				c0.7-0.6,1.6-0.9,2.7-0.9c0.8,0,1.5,0.2,2.1,0.5c0.6,0.3,1.1,0.8,1.5,1.4c0.4,0.6,0.7,1.3,0.9,2.2c0.2,0.9,0.3,2,0.3,3.5
				c0,1.7-0.2,3.1-0.5,4.2c-0.4,1-0.9,1.9-1.6,2.4c-0.7,0.6-1.6,0.9-2.7,0.9c-1.4,0-2.5-0.5-3.4-1.5
				C575.2,384.7,574.7,382.8,574.7,380L574.7,380z M576.5,380c0,2.4,0.3,4,0.9,4.8c0.6,0.8,1.3,1.2,2.1,1.2c0.8,0,1.5-0.4,2.1-1.2
				c0.6-0.8,0.9-2.4,0.9-4.8c0-2.4-0.3-4-0.9-4.8c-0.6-0.8-1.3-1.2-2.1-1.2c-0.8,0-1.5,0.3-2,1C576.8,375.9,576.5,377.6,576.5,380
				L576.5,380z M587.1,387.2v-2.1h2.1v2.1H587.1z M591.8,383.4l1.9-0.2c0.1,0.9,0.5,1.6,1,2.1c0.5,0.5,1.1,0.7,1.8,0.7
				c0.9,0,1.6-0.3,2.2-1c0.6-0.7,0.9-1.5,0.9-2.6c0-1-0.3-1.9-0.9-2.4c-0.6-0.6-1.3-0.9-2.3-0.9c-0.6,0-1.1,0.1-1.6,0.4
				c-0.5,0.3-0.8,0.6-1.1,1l-1.7-0.2l1.4-7.5h7.3v1.7H595l-0.8,4c0.9-0.6,1.8-0.9,2.8-0.9c1.3,0,2.4,0.4,3.3,1.3
				c0.9,0.9,1.3,2,1.3,3.4c0,1.3-0.4,2.5-1.2,3.5c-0.9,1.2-2.2,1.8-3.8,1.8c-1.3,0-2.4-0.4-3.3-1.1
				C592.4,385.6,591.9,384.6,591.8,383.4L591.8,383.4z"/>
		</g>
	</g>
</g>
<g>
	<g id="g2709">
		<g id="g2707">
			<path id="path2705" inkscape:connector-curvature="0" class="st1" d="M574.7,376.6c0-1.8,0.2-3.2,0.5-4.2c0.4-1,0.9-1.9,1.6-2.4
				c0.7-0.6,1.6-0.9,2.7-0.9c0.8,0,1.5,0.2,2.1,0.5c0.6,0.3,1.1,0.8,1.5,1.4c0.4,0.6,0.7,1.3,0.9,2.2c0.2,0.9,0.3,2,0.3,3.5
				c0,1.7-0.2,3.1-0.5,4.2c-0.4,1-0.9,1.9-1.6,2.4c-0.7,0.6-1.6,0.9-2.7,0.9c-1.4,0-2.5-0.5-3.4-1.5
				C575.2,381.3,574.7,379.3,574.7,376.6L574.7,376.6z M576.5,376.6c0,2.4,0.3,4,0.9,4.8c0.6,0.8,1.3,1.2,2.1,1.2
				c0.8,0,1.5-0.4,2.1-1.2c0.6-0.8,0.9-2.4,0.9-4.8c0-2.4-0.3-4-0.9-4.8c-0.6-0.8-1.3-1.2-2.1-1.2c-0.8,0-1.5,0.3-2,1
				C576.8,372.5,576.5,374.1,576.5,376.6L576.5,376.6z M587.1,383.8v-2.1h2.1v2.1H587.1z M591.8,380l1.9-0.2c0.1,0.9,0.5,1.6,1,2.1
				c0.5,0.5,1.1,0.7,1.8,0.7c0.9,0,1.6-0.3,2.2-1c0.6-0.7,0.9-1.5,0.9-2.6c0-1-0.3-1.9-0.9-2.4c-0.6-0.6-1.3-0.9-2.3-0.9
				c-0.6,0-1.1,0.1-1.6,0.4c-0.5,0.3-0.8,0.6-1.1,1l-1.7-0.2l1.4-7.5h7.3v1.7H595l-0.8,4c0.9-0.6,1.8-0.9,2.8-0.9
				c1.3,0,2.4,0.4,3.3,1.3c0.9,0.9,1.3,2,1.3,3.4c0,1.3-0.4,2.5-1.2,3.5c-0.9,1.2-2.2,1.8-3.8,1.8c-1.3,0-2.4-0.4-3.3-1.1
				C592.4,382.2,591.9,381.2,591.8,380L591.8,380z"/>
		</g>
	</g>
</g>
<g>
	<g id="g2718">
		<g id="g2716">
			<path id="path2714" inkscape:connector-curvature="0" d="M574.7,378.3c0-1.8,0.2-3.2,0.5-4.2c0.4-1,0.9-1.9,1.6-2.4
				c0.7-0.6,1.6-0.9,2.7-0.9c0.8,0,1.5,0.2,2.1,0.5c0.6,0.3,1.1,0.8,1.5,1.4c0.4,0.6,0.7,1.3,0.9,2.2c0.2,0.9,0.3,2,0.3,3.5
				c0,1.7-0.2,3.1-0.5,4.2c-0.4,1-0.9,1.9-1.6,2.4c-0.7,0.6-1.6,0.9-2.7,0.9c-1.4,0-2.5-0.5-3.4-1.5
				C575.2,383,574.7,381,574.7,378.3L574.7,378.3z M576.5,378.3c0,2.4,0.3,4,0.9,4.8c0.6,0.8,1.3,1.2,2.1,1.2c0.8,0,1.5-0.4,2.1-1.2
				c0.6-0.8,0.9-2.4,0.9-4.8c0-2.4-0.3-4-0.9-4.8c-0.6-0.8-1.3-1.2-2.1-1.2c-0.8,0-1.5,0.3-2,1C576.8,374.2,576.5,375.9,576.5,378.3
				L576.5,378.3z M587.1,385.5v-2.1h2.1v2.1H587.1z M591.8,381.7l1.9-0.2c0.1,0.9,0.5,1.6,1,2.1c0.5,0.5,1.1,0.7,1.8,0.7
				c0.9,0,1.6-0.3,2.2-1c0.6-0.7,0.9-1.5,0.9-2.6c0-1-0.3-1.9-0.9-2.4c-0.6-0.6-1.3-0.9-2.3-0.9c-0.6,0-1.1,0.1-1.6,0.4
				c-0.5,0.3-0.8,0.6-1.1,1l-1.7-0.2l1.4-7.5h7.3v1.7H595l-0.8,4c0.9-0.6,1.8-0.9,2.8-0.9c1.3,0,2.4,0.4,3.3,1.3
				c0.9,0.9,1.3,2,1.3,3.4c0,1.3-0.4,2.5-1.2,3.5c-0.9,1.2-2.2,1.8-3.8,1.8c-1.3,0-2.4-0.4-3.3-1.1
				C592.4,383.9,591.9,382.9,591.8,381.7L591.8,381.7z"/>
		</g>
	</g>
</g>
<g>
	<g id="g2727">
		<g id="g2725">
			<path id="path2723" inkscape:connector-curvature="0" class="st0" d="M588.2,359.1v5.1"/>
		</g>
	</g>
</g>
<g>
	<g id="g2736">
		<g id="g2734">
			<path id="path2732" inkscape:connector-curvature="0" class="st1" d="M735.4,385.5h-1.8V374c-0.4,0.4-1,0.8-1.7,1.2
				c-0.7,0.4-1.3,0.7-1.9,0.9v-1.7c1-0.5,1.9-1.1,2.6-1.7c0.8-0.7,1.3-1.3,1.6-2h1.1V385.5z"/>
		</g>
	</g>
</g>
<g>
	<g id="g2745">
		<g id="g2743">
			<path id="path2741" inkscape:connector-curvature="0" class="st1" d="M732,385.5h-1.8V374c-0.4,0.4-1,0.8-1.7,1.2
				c-0.7,0.4-1.3,0.7-1.9,0.9v-1.7c1-0.5,1.9-1.1,2.6-1.7c0.8-0.7,1.3-1.3,1.6-2h1.1V385.5z"/>
		</g>
	</g>
</g>
<g>
	<g id="g2754">
		<g id="g2752">
			<path id="path2750" inkscape:connector-curvature="0" class="st1" d="M733.7,387.2h-1.8v-11.5c-0.4,0.4-1,0.8-1.7,1.2
				c-0.7,0.4-1.3,0.7-1.9,0.9v-1.7c1-0.5,1.9-1.1,2.6-1.7c0.8-0.7,1.3-1.3,1.6-2h1.1V387.2z"/>
		</g>
	</g>
</g>
<g>
	<g id="g2763">
		<g id="g2761">
			<path id="path2759" inkscape:connector-curvature="0" class="st1" d="M733.7,383.8h-1.8v-11.5c-0.4,0.4-1,0.8-1.7,1.2
				c-0.7,0.4-1.3,0.7-1.9,0.9v-1.7c1-0.5,1.9-1.1,2.6-1.7c0.8-0.7,1.3-1.3,1.6-2h1.1V383.8z"/>
		</g>
	</g>
</g>
<g>
	<g id="g2772">
		<g id="g2770">
			<path id="path2768" inkscape:connector-curvature="0" d="M733.7,385.5h-1.8V374c-0.4,0.4-1,0.8-1.7,1.2c-0.7,0.4-1.3,0.7-1.9,0.9
				v-1.7c1-0.5,1.9-1.1,2.6-1.7c0.8-0.7,1.3-1.3,1.6-2h1.1V385.5z"/>
		</g>
	</g>
</g>
<g>
	<g id="g2781">
		<g id="g2779">
			<path id="path2777" inkscape:connector-curvature="0" class="st0" d="M730,359.1v5.1"/>
		</g>
	</g>
</g>
<g>
	<g id="g3123">
		<g id="g3121">
			<path id="path3119" inkscape:connector-curvature="0" class="st0" d="M441.2,642.8h5.1"/>
		</g>
	</g>
</g>
<g>
	<g id="g3132">
		<g id="g3130">
			<path id="path3128" inkscape:connector-curvature="0" class="st0" d="M441.2,501h5.1"/>
		</g>
	</g>
</g>
<g>
	<g id="g3141">
		<g id="g3139">
			<path id="path3137" inkscape:connector-curvature="0" class="st0" d="M441.2,217.2h5.1"/>
		</g>
	</g>
</g>
<g>
	<g id="g3150">
		<g id="g3148">
			<path id="path3146" inkscape:connector-curvature="0" class="st0" d="M441.2,75.4h5.1"/>
		</g>
	</g>
</g>
<g>
	<g id="g3213">
		<g id="g3211">
			<path id="path3209" inkscape:connector-curvature="0" class="st1" d="M414.1,645.2v-1.4h8.2v1.4H414.1z M430.9,650.7h-1.8v-11.5
				c-0.4,0.4-1,0.8-1.7,1.2c-0.7,0.4-1.3,0.7-1.9,0.9v-1.7c1-0.5,1.9-1.1,2.6-1.7c0.8-0.7,1.3-1.3,1.6-2h1.1L430.9,650.7z"/>
		</g>
	</g>
</g>
<g>
	<g id="g3222">
		<g id="g3220">
			<path id="path3218" inkscape:connector-curvature="0" class="st1" d="M410.6,645.2v-1.4h8.2v1.4H410.6z M427.5,650.7h-1.8v-11.5
				c-0.4,0.4-1,0.8-1.7,1.2c-0.7,0.4-1.3,0.7-1.9,0.9v-1.7c1-0.5,1.9-1.1,2.6-1.7c0.8-0.7,1.3-1.3,1.6-2h1.1L427.5,650.7z"/>
		</g>
	</g>
</g>
<g>
	<g id="g3231">
		<g id="g3229">
			<path id="path3227" inkscape:connector-curvature="0" class="st1" d="M412.4,646.9v-1.4h8.2v1.4H412.4z M429.2,652.4h-1.8v-11.5
				c-0.4,0.4-1,0.8-1.7,1.2c-0.7,0.4-1.3,0.7-1.9,0.9v-1.7c1-0.5,1.9-1.1,2.6-1.7c0.8-0.7,1.3-1.3,1.6-2h1.1L429.2,652.4z"/>
		</g>
	</g>
</g>
<g>
	<g id="g3240">
		<g id="g3238">
			<path id="path3236" inkscape:connector-curvature="0" class="st1" d="M412.4,643.5v-1.4h8.2v1.4H412.4z M429.2,649h-1.8v-11.5
				c-0.4,0.4-1,0.8-1.7,1.2c-0.7,0.4-1.3,0.7-1.9,0.9v-1.7c1-0.5,1.9-1.1,2.6-1.7c0.8-0.7,1.3-1.3,1.6-2h1.1L429.2,649z"/>
		</g>
	</g>
</g>
<g>
	<g id="g3249">
		<g id="g3247">
			<path id="path3245" inkscape:connector-curvature="0" d="M412.4,645.2v-1.4h8.2v1.4H412.4z M429.2,650.7h-1.8v-11.5
				c-0.4,0.4-1,0.8-1.7,1.2c-0.7,0.4-1.3,0.7-1.9,0.9v-1.7c1-0.5,1.9-1.1,2.6-1.7c0.8-0.7,1.3-1.3,1.6-2h1.1L429.2,650.7z"/>
		</g>
	</g>
</g>
<g>
	<g id="g3258">
		<g id="g3256">
			<path id="path3254" inkscape:connector-curvature="0" class="st1" d="M397,503.2v-1.4h8.2v1.4H397z M407,501.5
				c0-1.8,0.2-3.2,0.5-4.2c0.4-1,0.9-1.9,1.6-2.4c0.7-0.6,1.6-0.9,2.7-0.9c0.8,0,1.5,0.2,2.1,0.5c0.6,0.3,1.1,0.8,1.5,1.4
				c0.4,0.6,0.7,1.3,0.9,2.2c0.2,0.9,0.3,2,0.3,3.5c0,1.7-0.2,3.1-0.5,4.2c-0.4,1-0.9,1.9-1.6,2.4c-0.7,0.6-1.6,0.9-2.7,0.9
				c-1.4,0-2.5-0.5-3.4-1.5C407.5,506.2,407,504.2,407,501.5L407,501.5z M408.9,501.5c0,2.4,0.3,4,0.9,4.8c0.6,0.8,1.3,1.2,2.1,1.2
				c0.8,0,1.5-0.4,2.1-1.2c0.6-0.8,0.9-2.4,0.9-4.8c0-2.4-0.3-4-0.9-4.8c-0.6-0.8-1.3-1.2-2.1-1.2c-0.8,0-1.5,0.3-2,1
				C409.2,497.4,408.9,499,408.9,501.5L408.9,501.5z M419.5,508.7v-2.1h2.1v2.1H419.5z M424.2,504.8l1.9-0.2c0.1,0.9,0.5,1.6,1,2.1
				c0.5,0.5,1.1,0.7,1.8,0.7c0.9,0,1.6-0.3,2.2-1c0.6-0.7,0.9-1.5,0.9-2.6c0-1-0.3-1.9-0.9-2.4c-0.6-0.6-1.3-0.9-2.3-0.9
				c-0.6,0-1.1,0.1-1.6,0.4c-0.5,0.3-0.8,0.6-1.1,1l-1.7-0.2l1.4-7.5h7.3v1.7h-5.9l-0.8,4c0.9-0.6,1.8-0.9,2.8-0.9
				c1.3,0,2.4,0.4,3.3,1.3c0.9,0.9,1.3,2,1.3,3.4c0,1.3-0.4,2.5-1.2,3.5c-0.9,1.2-2.2,1.8-3.8,1.8c-1.3,0-2.4-0.4-3.3-1.1
				C424.8,507.1,424.3,506.1,424.2,504.8L424.2,504.8z"/>
		</g>
	</g>
</g>
<g>
	<g id="g3267">
		<g id="g3265">
			<path id="path3263" inkscape:connector-curvature="0" class="st1" d="M393.5,503.2v-1.4h8.2v1.4H393.5z M403.6,501.5
				c0-1.8,0.2-3.2,0.5-4.2c0.4-1,0.9-1.9,1.6-2.4c0.7-0.6,1.6-0.9,2.7-0.9c0.8,0,1.5,0.2,2.1,0.5c0.6,0.3,1.1,0.8,1.5,1.4
				c0.4,0.6,0.7,1.3,0.9,2.2c0.2,0.9,0.3,2,0.3,3.5c0,1.7-0.2,3.1-0.5,4.2c-0.4,1-0.9,1.9-1.6,2.4c-0.7,0.6-1.6,0.9-2.7,0.9
				c-1.4,0-2.5-0.5-3.4-1.5C404.1,506.2,403.6,504.2,403.6,501.5L403.6,501.5z M405.5,501.5c0,2.4,0.3,4,0.9,4.8
				c0.6,0.8,1.3,1.2,2.1,1.2c0.8,0,1.5-0.4,2.1-1.2c0.6-0.8,0.9-2.4,0.9-4.8c0-2.4-0.3-4-0.9-4.8c-0.6-0.8-1.3-1.2-2.1-1.2
				c-0.8,0-1.5,0.3-2,1C405.8,497.4,405.5,499,405.5,501.5L405.5,501.5z M416,508.7v-2.1h2.1v2.1H416z M420.7,504.8l1.9-0.2
				c0.1,0.9,0.5,1.6,1,2.1c0.5,0.5,1.1,0.7,1.8,0.7c0.9,0,1.6-0.3,2.2-1c0.6-0.7,0.9-1.5,0.9-2.6c0-1-0.3-1.9-0.9-2.4
				c-0.6-0.6-1.3-0.9-2.3-0.9c-0.6,0-1.1,0.1-1.6,0.4c-0.5,0.3-0.8,0.6-1.1,1l-1.7-0.2l1.4-7.5h7.3v1.7h-5.9l-0.8,4
				c0.9-0.6,1.8-0.9,2.8-0.9c1.3,0,2.4,0.4,3.3,1.3c0.9,0.9,1.3,2,1.3,3.4c0,1.3-0.4,2.5-1.2,3.5c-0.9,1.2-2.2,1.8-3.8,1.8
				c-1.3,0-2.4-0.4-3.3-1.1C421.3,507.1,420.9,506.1,420.7,504.8L420.7,504.8z"/>
		</g>
	</g>
</g>
<g>
	<g id="g3276">
		<g id="g3274">
			<path id="path3272" inkscape:connector-curvature="0" class="st1" d="M395.2,504.9v-1.4h8.2v1.4H395.2z M405.3,503.2
				c0-1.8,0.2-3.2,0.5-4.2c0.4-1,0.9-1.9,1.6-2.4c0.7-0.6,1.6-0.9,2.7-0.9c0.8,0,1.5,0.2,2.1,0.5c0.6,0.3,1.1,0.8,1.5,1.4
				c0.4,0.6,0.7,1.3,0.9,2.2c0.2,0.9,0.3,2,0.3,3.5c0,1.7-0.2,3.1-0.5,4.2c-0.4,1-0.9,1.9-1.6,2.4c-0.7,0.6-1.6,0.9-2.7,0.9
				c-1.4,0-2.5-0.5-3.4-1.5C405.8,507.9,405.3,505.9,405.3,503.2L405.3,503.2z M407.2,503.2c0,2.4,0.3,4,0.9,4.8
				c0.6,0.8,1.3,1.2,2.1,1.2c0.8,0,1.5-0.4,2.1-1.2c0.6-0.8,0.9-2.4,0.9-4.8c0-2.4-0.3-4-0.9-4.8c-0.6-0.8-1.3-1.2-2.1-1.2
				c-0.8,0-1.5,0.3-2,1C407.5,499.1,407.2,500.7,407.2,503.2L407.2,503.2z M417.8,510.4v-2.1h2.1v2.1H417.8z M422.4,506.5l1.9-0.2
				c0.1,0.9,0.5,1.6,1,2.1c0.5,0.5,1.1,0.7,1.8,0.7c0.9,0,1.6-0.3,2.2-1c0.6-0.7,0.9-1.5,0.9-2.6c0-1-0.3-1.9-0.9-2.4
				c-0.6-0.6-1.3-0.9-2.3-0.9c-0.6,0-1.1,0.1-1.6,0.4c-0.5,0.3-0.8,0.6-1.1,1l-1.7-0.2l1.4-7.5h7.3v1.7h-5.9l-0.8,4
				c0.9-0.6,1.8-0.9,2.8-0.9c1.3,0,2.4,0.4,3.3,1.3c0.9,0.9,1.3,2,1.3,3.4c0,1.3-0.4,2.5-1.2,3.5c-0.9,1.2-2.2,1.8-3.8,1.8
				c-1.3,0-2.4-0.4-3.3-1.1C423.1,508.8,422.6,507.8,422.4,506.5L422.4,506.5z"/>
		</g>
	</g>
</g>
<g>
	<g id="g3285">
		<g id="g3283">
			<path id="path3281" inkscape:connector-curvature="0" class="st1" d="M395.2,501.5v-1.4h8.2v1.4H395.2z M405.3,499.7
				c0-1.8,0.2-3.2,0.5-4.2c0.4-1,0.9-1.9,1.6-2.4c0.7-0.6,1.6-0.9,2.7-0.9c0.8,0,1.5,0.2,2.1,0.5c0.6,0.3,1.1,0.8,1.5,1.4
				c0.4,0.6,0.7,1.3,0.9,2.2c0.2,0.9,0.3,2,0.3,3.5c0,1.7-0.2,3.1-0.5,4.2c-0.4,1-0.9,1.9-1.6,2.4c-0.7,0.6-1.6,0.9-2.7,0.9
				c-1.4,0-2.5-0.5-3.4-1.5C405.8,504.5,405.3,502.5,405.3,499.7L405.3,499.7z M407.2,499.7c0,2.4,0.3,4,0.9,4.8
				c0.6,0.8,1.3,1.2,2.1,1.2c0.8,0,1.5-0.4,2.1-1.2c0.6-0.8,0.9-2.4,0.9-4.8c0-2.4-0.3-4-0.9-4.8c-0.6-0.8-1.3-1.2-2.1-1.2
				c-0.8,0-1.5,0.3-2,1C407.5,495.7,407.2,497.3,407.2,499.7L407.2,499.7z M417.8,507v-2.1h2.1v2.1H417.8z M422.4,503.1l1.9-0.2
				c0.1,0.9,0.5,1.6,1,2.1c0.5,0.5,1.1,0.7,1.8,0.7c0.9,0,1.6-0.3,2.2-1c0.6-0.7,0.9-1.5,0.9-2.6c0-1-0.3-1.9-0.9-2.4
				c-0.6-0.6-1.3-0.9-2.3-0.9c-0.6,0-1.1,0.1-1.6,0.4c-0.5,0.3-0.8,0.6-1.1,1l-1.7-0.2l1.4-7.5h7.3v1.7h-5.9l-0.8,4
				c0.9-0.6,1.8-0.9,2.8-0.9c1.3,0,2.4,0.4,3.3,1.3c0.9,0.9,1.3,2,1.3,3.4c0,1.3-0.4,2.5-1.2,3.5c-0.9,1.2-2.2,1.8-3.8,1.8
				c-1.3,0-2.4-0.4-3.3-1.1C423.1,505.3,422.6,504.4,422.4,503.1L422.4,503.1z"/>
		</g>
	</g>
</g>
<g>
	<g id="g3294">
		<g id="g3292">
			<path id="path3290" inkscape:connector-curvature="0" d="M395.2,503.2v-1.4h8.2v1.4H395.2z M405.3,501.5c0-1.8,0.2-3.2,0.5-4.2
				c0.4-1,0.9-1.9,1.6-2.4c0.7-0.6,1.6-0.9,2.7-0.9c0.8,0,1.5,0.2,2.1,0.5c0.6,0.3,1.1,0.8,1.5,1.4c0.4,0.6,0.7,1.3,0.9,2.2
				c0.2,0.9,0.3,2,0.3,3.5c0,1.7-0.2,3.1-0.5,4.2c-0.4,1-0.9,1.9-1.6,2.4c-0.7,0.6-1.6,0.9-2.7,0.9c-1.4,0-2.5-0.5-3.4-1.5
				C405.8,506.2,405.3,504.2,405.3,501.5L405.3,501.5z M407.2,501.5c0,2.4,0.3,4,0.9,4.8c0.6,0.8,1.3,1.2,2.1,1.2
				c0.8,0,1.5-0.4,2.1-1.2c0.6-0.8,0.9-2.4,0.9-4.8c0-2.4-0.3-4-0.9-4.8c-0.6-0.8-1.3-1.2-2.1-1.2c-0.8,0-1.5,0.3-2,1
				C407.5,497.4,407.2,499,407.2,501.5L407.2,501.5z M417.8,508.7v-2.1h2.1v2.1H417.8z M422.4,504.8l1.9-0.2c0.1,0.9,0.5,1.6,1,2.1
				c0.5,0.5,1.1,0.7,1.8,0.7c0.9,0,1.6-0.3,2.2-1c0.6-0.7,0.9-1.5,0.9-2.6c0-1-0.3-1.9-0.9-2.4c-0.6-0.6-1.3-0.9-2.3-0.9
				c-0.6,0-1.1,0.1-1.6,0.4c-0.5,0.3-0.8,0.6-1.1,1l-1.7-0.2l1.4-7.5h7.3v1.7h-5.9l-0.8,4c0.9-0.6,1.8-0.9,2.8-0.9
				c1.3,0,2.4,0.4,3.3,1.3c0.9,0.9,1.3,2,1.3,3.4c0,1.3-0.4,2.5-1.2,3.5c-0.9,1.2-2.2,1.8-3.8,1.8c-1.3,0-2.4-0.4-3.3-1.1
				C423.1,507.1,422.6,506.1,422.4,504.8L422.4,504.8z"/>
		</g>
	</g>
</g>
<g>
	<g id="g3303">
		<g id="g3301">
			<path id="path3299" inkscape:connector-curvature="0" class="st1" d="M407,217.5c0-1.8,0.2-3.2,0.5-4.2c0.4-1,0.9-1.9,1.6-2.4
				s1.6-0.9,2.7-0.9c0.8,0,1.5,0.2,2.1,0.5c0.6,0.3,1.1,0.8,1.5,1.4c0.4,0.6,0.7,1.3,0.9,2.2c0.2,0.9,0.3,2,0.3,3.5
				c0,1.7-0.2,3.1-0.5,4.2c-0.4,1-0.9,1.9-1.6,2.4c-0.7,0.6-1.6,0.9-2.7,0.9c-1.4,0-2.5-0.5-3.4-1.5
				C407.5,222.2,407,220.2,407,217.5L407,217.5z M408.9,217.5c0,2.4,0.3,4,0.9,4.8c0.6,0.8,1.3,1.2,2.1,1.2c0.8,0,1.5-0.4,2.1-1.2
				c0.6-0.8,0.9-2.4,0.9-4.8c0-2.4-0.3-4-0.9-4.8c-0.6-0.8-1.3-1.2-2.1-1.2c-0.8,0-1.5,0.3-2,1C409.2,213.4,408.9,215.1,408.9,217.5
				z M419.5,224.7v-2.1h2.1v2.1H419.5z M424.2,220.9l1.9-0.2c0.1,0.9,0.5,1.6,1,2.1c0.5,0.5,1.1,0.7,1.8,0.7c0.9,0,1.6-0.3,2.2-1
				c0.6-0.7,0.9-1.5,0.9-2.6c0-1-0.3-1.9-0.9-2.4c-0.6-0.6-1.3-0.9-2.3-0.9c-0.6,0-1.1,0.1-1.6,0.4c-0.5,0.3-0.8,0.6-1.1,1l-1.7-0.2
				l1.4-7.5h7.3v1.7h-5.9l-0.8,4c0.9-0.6,1.8-0.9,2.8-0.9c1.3,0,2.4,0.4,3.3,1.3c0.9,0.9,1.3,2,1.3,3.4c0,1.3-0.4,2.5-1.2,3.5
				c-0.9,1.2-2.2,1.8-3.8,1.8c-1.3,0-2.4-0.4-3.3-1.1C424.8,223.1,424.3,222.1,424.2,220.9L424.2,220.9z"/>
		</g>
	</g>
</g>
<g>
	<g id="g3312">
		<g id="g3310">
			<path id="path3308" inkscape:connector-curvature="0" class="st1" d="M403.6,217.5c0-1.8,0.2-3.2,0.5-4.2c0.4-1,0.9-1.9,1.6-2.4
				s1.6-0.9,2.7-0.9c0.8,0,1.5,0.2,2.1,0.5c0.6,0.3,1.1,0.8,1.5,1.4c0.4,0.6,0.7,1.3,0.9,2.2c0.2,0.9,0.3,2,0.3,3.5
				c0,1.7-0.2,3.1-0.5,4.2c-0.4,1-0.9,1.9-1.6,2.4c-0.7,0.6-1.6,0.9-2.7,0.9c-1.4,0-2.5-0.5-3.4-1.5
				C404.1,222.2,403.6,220.2,403.6,217.5L403.6,217.5z M405.5,217.5c0,2.4,0.3,4,0.9,4.8c0.6,0.8,1.3,1.2,2.1,1.2
				c0.8,0,1.5-0.4,2.1-1.2c0.6-0.8,0.9-2.4,0.9-4.8c0-2.4-0.3-4-0.9-4.8c-0.6-0.8-1.3-1.2-2.1-1.2c-0.8,0-1.5,0.3-2,1
				C405.8,213.4,405.5,215.1,405.5,217.5z M416,224.7v-2.1h2.1v2.1H416z M420.7,220.9l1.9-0.2c0.1,0.9,0.5,1.6,1,2.1
				c0.5,0.5,1.1,0.7,1.8,0.7c0.9,0,1.6-0.3,2.2-1c0.6-0.7,0.9-1.5,0.9-2.6c0-1-0.3-1.9-0.9-2.4c-0.6-0.6-1.3-0.9-2.3-0.9
				c-0.6,0-1.1,0.1-1.6,0.4c-0.5,0.3-0.8,0.6-1.1,1l-1.7-0.2l1.4-7.5h7.3v1.7h-5.9l-0.8,4c0.9-0.6,1.8-0.9,2.8-0.9
				c1.3,0,2.4,0.4,3.3,1.3c0.9,0.9,1.3,2,1.3,3.4c0,1.3-0.4,2.5-1.2,3.5c-0.9,1.2-2.2,1.8-3.8,1.8c-1.3,0-2.4-0.4-3.3-1.1
				C421.3,223.1,420.9,222.1,420.7,220.9L420.7,220.9z"/>
		</g>
	</g>
</g>
<g>
	<g id="g3321">
		<g id="g3319">
			<path id="path3317" inkscape:connector-curvature="0" class="st1" d="M405.3,219.2c0-1.8,0.2-3.2,0.5-4.2c0.4-1,0.9-1.9,1.6-2.4
				s1.6-0.9,2.7-0.9c0.8,0,1.5,0.2,2.1,0.5c0.6,0.3,1.1,0.8,1.5,1.4c0.4,0.6,0.7,1.3,0.9,2.2c0.2,0.9,0.3,2,0.3,3.5
				c0,1.7-0.2,3.1-0.5,4.2c-0.4,1-0.9,1.9-1.6,2.4c-0.7,0.6-1.6,0.9-2.7,0.9c-1.4,0-2.5-0.5-3.4-1.5
				C405.8,223.9,405.3,222,405.3,219.2L405.3,219.2z M407.2,219.2c0,2.4,0.3,4,0.9,4.8c0.6,0.8,1.3,1.2,2.1,1.2
				c0.8,0,1.5-0.4,2.1-1.2c0.6-0.8,0.9-2.4,0.9-4.8c0-2.4-0.3-4-0.9-4.8c-0.6-0.8-1.3-1.2-2.1-1.2c-0.8,0-1.5,0.3-2,1
				C407.5,215.1,407.2,216.8,407.2,219.2z M417.8,226.4v-2.1h2.1v2.1H417.8z M422.4,222.6l1.9-0.2c0.1,0.9,0.5,1.6,1,2.1
				c0.5,0.5,1.1,0.7,1.8,0.7c0.9,0,1.6-0.3,2.2-1c0.6-0.7,0.9-1.5,0.9-2.6c0-1-0.3-1.9-0.9-2.4c-0.6-0.6-1.3-0.9-2.3-0.9
				c-0.6,0-1.1,0.1-1.6,0.4c-0.5,0.3-0.8,0.6-1.1,1l-1.7-0.2l1.4-7.5h7.3v1.7h-5.9l-0.8,4c0.9-0.6,1.8-0.9,2.8-0.9
				c1.3,0,2.4,0.4,3.3,1.3c0.9,0.9,1.3,2,1.3,3.4c0,1.3-0.4,2.5-1.2,3.5c-0.9,1.2-2.2,1.8-3.8,1.8c-1.3,0-2.4-0.4-3.3-1.1
				C423.1,224.8,422.6,223.8,422.4,222.6L422.4,222.6z"/>
		</g>
	</g>
</g>
<g>
	<g id="g3330">
		<g id="g3328">
			<path id="path3326" inkscape:connector-curvature="0" class="st1" d="M405.3,215.8c0-1.8,0.2-3.2,0.5-4.2c0.4-1,0.9-1.9,1.6-2.4
				s1.6-0.9,2.7-0.9c0.8,0,1.5,0.2,2.1,0.5c0.6,0.3,1.1,0.8,1.5,1.4c0.4,0.6,0.7,1.3,0.9,2.2c0.2,0.9,0.3,2,0.3,3.5
				c0,1.7-0.2,3.1-0.5,4.2c-0.4,1-0.9,1.9-1.6,2.4c-0.7,0.6-1.6,0.9-2.7,0.9c-1.4,0-2.5-0.5-3.4-1.5
				C405.8,220.5,405.3,218.5,405.3,215.8L405.3,215.8z M407.2,215.8c0,2.4,0.3,4,0.9,4.8c0.6,0.8,1.3,1.2,2.1,1.2
				c0.8,0,1.5-0.4,2.1-1.2c0.6-0.8,0.9-2.4,0.9-4.8c0-2.4-0.3-4-0.9-4.8c-0.6-0.8-1.3-1.2-2.1-1.2c-0.8,0-1.5,0.3-2,1
				C407.5,211.7,407.2,213.3,407.2,215.8z M417.8,223V221h2.1v2.1H417.8z M422.4,219.2l1.9-0.2c0.1,0.9,0.5,1.6,1,2.1
				c0.5,0.5,1.1,0.7,1.8,0.7c0.9,0,1.6-0.3,2.2-1c0.6-0.7,0.9-1.5,0.9-2.6c0-1-0.3-1.9-0.9-2.4c-0.6-0.6-1.3-0.9-2.3-0.9
				c-0.6,0-1.1,0.1-1.6,0.4c-0.5,0.3-0.8,0.6-1.1,1l-1.7-0.2l1.4-7.5h7.3v1.7h-5.9l-0.8,4c0.9-0.6,1.8-0.9,2.8-0.9
				c1.3,0,2.4,0.4,3.3,1.3c0.9,0.9,1.3,2,1.3,3.4c0,1.3-0.4,2.5-1.2,3.5c-0.9,1.2-2.2,1.8-3.8,1.8c-1.3,0-2.4-0.4-3.3-1.1
				C423.1,221.4,422.6,220.4,422.4,219.2L422.4,219.2z"/>
		</g>
	</g>
</g>
<g>
	<g id="g3339">
		<g id="g3337">
			<path id="path3335" inkscape:connector-curvature="0" d="M405.3,217.5c0-1.8,0.2-3.2,0.5-4.2c0.4-1,0.9-1.9,1.6-2.4
				s1.6-0.9,2.7-0.9c0.8,0,1.5,0.2,2.1,0.5c0.6,0.3,1.1,0.8,1.5,1.4c0.4,0.6,0.7,1.3,0.9,2.2c0.2,0.9,0.3,2,0.3,3.5
				c0,1.7-0.2,3.1-0.5,4.2c-0.4,1-0.9,1.9-1.6,2.4c-0.7,0.6-1.6,0.9-2.7,0.9c-1.4,0-2.5-0.5-3.4-1.5
				C405.8,222.2,405.3,220.2,405.3,217.5L405.3,217.5z M407.2,217.5c0,2.4,0.3,4,0.9,4.8c0.6,0.8,1.3,1.2,2.1,1.2
				c0.8,0,1.5-0.4,2.1-1.2c0.6-0.8,0.9-2.4,0.9-4.8c0-2.4-0.3-4-0.9-4.8c-0.6-0.8-1.3-1.2-2.1-1.2c-0.8,0-1.5,0.3-2,1
				C407.5,213.4,407.2,215.1,407.2,217.5z M417.8,224.7v-2.1h2.1v2.1H417.8z M422.4,220.9l1.9-0.2c0.1,0.9,0.5,1.6,1,2.1
				c0.5,0.5,1.1,0.7,1.8,0.7c0.9,0,1.6-0.3,2.2-1c0.6-0.7,0.9-1.5,0.9-2.6c0-1-0.3-1.9-0.9-2.4c-0.6-0.6-1.3-0.9-2.3-0.9
				c-0.6,0-1.1,0.1-1.6,0.4c-0.5,0.3-0.8,0.6-1.1,1l-1.7-0.2l1.4-7.5h7.3v1.7h-5.9l-0.8,4c0.9-0.6,1.8-0.9,2.8-0.9
				c1.3,0,2.4,0.4,3.3,1.3c0.9,0.9,1.3,2,1.3,3.4c0,1.3-0.4,2.5-1.2,3.5c-0.9,1.2-2.2,1.8-3.8,1.8c-1.3,0-2.4-0.4-3.3-1.1
				C423.1,223.1,422.6,222.1,422.4,220.9L422.4,220.9z"/>
		</g>
	</g>
</g>
<g>
	<g id="g3348">
		<g id="g3346">
			<path id="path3344" inkscape:connector-curvature="0" class="st1" d="M430.9,82.7h-1.8V71.2c-0.4,0.4-1,0.8-1.7,1.2
				c-0.7,0.4-1.3,0.7-1.9,0.9v-1.7c1-0.5,1.9-1.1,2.6-1.7c0.8-0.7,1.3-1.3,1.6-2h1.1L430.9,82.7z"/>
		</g>
	</g>
</g>
<g>
	<g id="g3357">
		<g id="g3355">
			<path id="path3353" inkscape:connector-curvature="0" class="st1" d="M427.5,82.7h-1.8V71.2c-0.4,0.4-1,0.8-1.7,1.2
				c-0.7,0.4-1.3,0.7-1.9,0.9v-1.7c1-0.5,1.9-1.1,2.6-1.7c0.8-0.7,1.3-1.3,1.6-2h1.1L427.5,82.7z"/>
		</g>
	</g>
</g>
<g>
	<g id="g3366">
		<g id="g3364">
			<path id="path3362" inkscape:connector-curvature="0" class="st1" d="M429.2,84.4h-1.8V73c-0.4,0.4-1,0.8-1.7,1.2
				c-0.7,0.4-1.3,0.7-1.9,0.9v-1.7c1-0.5,1.9-1.1,2.6-1.7c0.8-0.7,1.3-1.3,1.6-2h1.1L429.2,84.4z"/>
		</g>
	</g>
</g>
<g>
	<g id="g3375">
		<g id="g3373">
			<path id="path3371" inkscape:connector-curvature="0" class="st1" d="M429.2,81h-1.8V69.5c-0.4,0.4-1,0.8-1.7,1.2
				c-0.7,0.4-1.3,0.7-1.9,0.9V70c1-0.5,1.9-1.1,2.6-1.7c0.8-0.7,1.3-1.3,1.6-2h1.1L429.2,81z"/>
		</g>
	</g>
</g>
<g>
	<g id="g3384">
		<g id="g3382">
			<path id="path3380" inkscape:connector-curvature="0" d="M429.2,82.7h-1.8V71.2c-0.4,0.4-1,0.8-1.7,1.2c-0.7,0.4-1.3,0.7-1.9,0.9
				v-1.7c1-0.5,1.9-1.1,2.6-1.7c0.8-0.7,1.3-1.3,1.6-2h1.1L429.2,82.7z"/>
		</g>
	</g>
</g>
<g>
	<g id="g3438">
		<g id="g3436">
			<path id="path3434" inkscape:connector-curvature="0" class="st1" d="M424.1,378.3c0-1.8,0.2-3.2,0.5-4.2c0.4-1,0.9-1.9,1.6-2.4
				c0.7-0.6,1.6-0.9,2.7-0.9c0.8,0,1.5,0.2,2.1,0.5c0.6,0.3,1.1,0.8,1.5,1.4c0.4,0.6,0.7,1.3,0.9,2.2c0.2,0.9,0.3,2,0.3,3.5
				c0,1.7-0.2,3.1-0.5,4.2c-0.4,1-0.9,1.9-1.6,2.4c-0.7,0.6-1.6,0.9-2.7,0.9c-1.4,0-2.5-0.5-3.4-1.5
				C424.6,383,424.1,381,424.1,378.3L424.1,378.3z M426,378.3c0,2.4,0.3,4,0.9,4.8c0.6,0.8,1.3,1.2,2.1,1.2c0.8,0,1.5-0.4,2.1-1.2
				c0.6-0.8,0.9-2.4,0.9-4.8c0-2.4-0.3-4-0.9-4.8c-0.6-0.8-1.3-1.2-2.1-1.2c-0.8,0-1.5,0.3-2,1C426.3,374.2,426,375.9,426,378.3
				L426,378.3z"/>
		</g>
	</g>
</g>
<g>
	<g id="g3447">
		<g id="g3445">
			<path id="path3443" inkscape:connector-curvature="0" class="st1" d="M420.7,378.3c0-1.8,0.2-3.2,0.5-4.2c0.4-1,0.9-1.9,1.6-2.4
				c0.7-0.6,1.6-0.9,2.7-0.9c0.8,0,1.5,0.2,2.1,0.5c0.6,0.3,1.1,0.8,1.5,1.4c0.4,0.6,0.7,1.3,0.9,2.2c0.2,0.9,0.3,2,0.3,3.5
				c0,1.7-0.2,3.1-0.5,4.2c-0.4,1-0.9,1.9-1.6,2.4c-0.7,0.6-1.6,0.9-2.7,0.9c-1.4,0-2.5-0.5-3.4-1.5
				C421.2,383,420.7,381,420.7,378.3L420.7,378.3z M422.6,378.3c0,2.4,0.3,4,0.9,4.8c0.6,0.8,1.3,1.2,2.1,1.2c0.8,0,1.5-0.4,2.1-1.2
				c0.6-0.8,0.9-2.4,0.9-4.8c0-2.4-0.3-4-0.9-4.8c-0.6-0.8-1.3-1.2-2.1-1.2c-0.8,0-1.5,0.3-2,1C422.9,374.2,422.6,375.9,422.6,378.3
				L422.6,378.3z"/>
		</g>
	</g>
</g>
<g>
	<g id="g3456">
		<g id="g3454">
			<path id="path3452" inkscape:connector-curvature="0" class="st1" d="M422.4,380c0-1.8,0.2-3.2,0.5-4.2c0.4-1,0.9-1.9,1.6-2.4
				c0.7-0.6,1.6-0.9,2.7-0.9c0.8,0,1.5,0.2,2.1,0.5c0.6,0.3,1.1,0.8,1.5,1.4c0.4,0.6,0.7,1.3,0.9,2.2c0.2,0.9,0.3,2,0.3,3.5
				c0,1.7-0.2,3.1-0.5,4.2c-0.4,1-0.9,1.9-1.6,2.4c-0.7,0.6-1.6,0.9-2.7,0.9c-1.4,0-2.5-0.5-3.4-1.5
				C422.9,384.7,422.4,382.8,422.4,380L422.4,380z M424.3,380c0,2.4,0.3,4,0.9,4.8c0.6,0.8,1.3,1.2,2.1,1.2c0.8,0,1.5-0.4,2.1-1.2
				c0.6-0.8,0.9-2.4,0.9-4.8c0-2.4-0.3-4-0.9-4.8c-0.6-0.8-1.3-1.2-2.1-1.2c-0.8,0-1.5,0.3-2,1C424.6,375.9,424.3,377.6,424.3,380
				L424.3,380z"/>
		</g>
	</g>
</g>
<g>
	<g id="g3465">
		<g id="g3463">
			<path id="path3461" inkscape:connector-curvature="0" class="st1" d="M422.4,376.6c0-1.8,0.2-3.2,0.5-4.2c0.4-1,0.9-1.9,1.6-2.4
				c0.7-0.6,1.6-0.9,2.7-0.9c0.8,0,1.5,0.2,2.1,0.5c0.6,0.3,1.1,0.8,1.5,1.4c0.4,0.6,0.7,1.3,0.9,2.2c0.2,0.9,0.3,2,0.3,3.5
				c0,1.7-0.2,3.1-0.5,4.2c-0.4,1-0.9,1.9-1.6,2.4c-0.7,0.6-1.6,0.9-2.7,0.9c-1.4,0-2.5-0.5-3.4-1.5
				C422.9,381.3,422.4,379.3,422.4,376.6L422.4,376.6z M424.3,376.6c0,2.4,0.3,4,0.9,4.8c0.6,0.8,1.3,1.2,2.1,1.2
				c0.8,0,1.5-0.4,2.1-1.2c0.6-0.8,0.9-2.4,0.9-4.8c0-2.4-0.3-4-0.9-4.8c-0.6-0.8-1.3-1.2-2.1-1.2c-0.8,0-1.5,0.3-2,1
				C424.6,372.5,424.3,374.1,424.3,376.6L424.3,376.6z"/>
		</g>
	</g>
</g>
<g>
	<g id="g3474">
		<g id="g3472">
			<path id="path3470" inkscape:connector-curvature="0" d="M422.4,378.3c0-1.8,0.2-3.2,0.5-4.2c0.4-1,0.9-1.9,1.6-2.4
				c0.7-0.6,1.6-0.9,2.7-0.9c0.8,0,1.5,0.2,2.1,0.5c0.6,0.3,1.1,0.8,1.5,1.4c0.4,0.6,0.7,1.3,0.9,2.2c0.2,0.9,0.3,2,0.3,3.5
				c0,1.7-0.2,3.1-0.5,4.2c-0.4,1-0.9,1.9-1.6,2.4c-0.7,0.6-1.6,0.9-2.7,0.9c-1.4,0-2.5-0.5-3.4-1.5
				C422.9,383,422.4,381,422.4,378.3L422.4,378.3z M424.3,378.3c0,2.4,0.3,4,0.9,4.8c0.6,0.8,1.3,1.2,2.1,1.2c0.8,0,1.5-0.4,2.1-1.2
				c0.6-0.8,0.9-2.4,0.9-4.8c0-2.4-0.3-4-0.9-4.8c-0.6-0.8-1.3-1.2-2.1-1.2c-0.8,0-1.5,0.3-2,1C424.6,374.2,424.3,375.9,424.3,378.3
				L424.3,378.3z"/>
		</g>
	</g>
</g>
<g>
	<g id="g3488">
		<g id="g3486">
			<path id="path3480" inkscape:connector-curvature="0" class="st2" d="M730,359.1c0,156.7-127,283.7-283.7,283.7
				s-283.7-127-283.7-283.7s127-283.7,283.7-283.7S730,202.4,730,359.1z"/>
			<title  id="title3482">Circle c</title>
			<desc  id="desc3484">Circle c: Circle through F with center E</desc>
		</g>
	</g>
</g>
<g>
	<g id="g3553">
		<g id="g3551">
			<path id="path3545" inkscape:connector-curvature="0" class="st3" d="M446.3,359.1l180-180"/>
			<title  id="title3547">Vector u</title>
			<desc  id="desc3549">Vector u: Vector(H, d1)</desc>
		</g>
	</g>
</g>
<g>
	<g id="g3605">
		<g id="g3603">
			<path id="path3597" inkscape:connector-curvature="0" class="st4" d="M655.5,158.5c0,4.7-3.8,8.6-8.6,8.6s-8.6-3.8-8.6-8.6
				s3.8-8.6,8.6-8.6S655.5,153.8,655.5,158.5z"/>
			<title  id="title3599">Point d1</title>
			<desc  id="desc3601">d1 = (0.71, 0.71)</desc>
		</g>
	</g>
</g>
<g>
	<g id="g3813_1_">
		<g id="g3811_1_">
			<title  id="title3807">[.707 .707]</title>
			<desc  id="desc3809">text3 = â[.707 .707]â</desc>
			<text transform="matrix(1 0 0 1 660.1359 147.9967)" class="st5 st6">[0.707, 0.707]</text>
		</g>
	</g>
</g>
<title  id="title3807">[.707 .707]</title>
<desc  id="desc3809">text3 = â[.707 .707]â</desc>
<text transform="matrix(1 0 0 1 425.3798 28.2819)" class="st5 st6">[0, 1]</text>
<text transform="matrix(1 0 0 1 809.4397 368.6717)" class="st5 st6">[1, 0]</text>
<text transform="matrix(1 0 0 1 421.389 705.668)" class="st5 st6">[0, -1]</text>
<text transform="matrix(1 0 0 1 7.3507 368.6717)" class="st5 st6">[-1, 0]</text>
<g>
	<g id="g3813_2_">
		<g id="g3811_2_">
			<title  id="title3807">[.707 .707]</title>
			<desc  id="desc3809">text3 = â[.707 .707]â</desc>
			<text transform="matrix(1 0 0 1 107.4479 134.03)" class="st5 st6">[-0.707, 0.707]</text>
		</g>
	</g>
</g>
<g>
	<g id="g3566">
		<g id="g3564">
			<path id="path3558" inkscape:connector-curvature="0" class="st7" d="M646.9,158.5l-15.4,25.7l-10.3-10.3L646.9,158.5z"/>
			<title  id="title3560">Vector u</title>
			<desc  id="desc3562">Vector u: Vector(H, d1)</desc>
		</g>
	</g>
</g>
<g>
	<g id="g3553_1_">
		<g id="g3551_1_">
			<path id="path3545_1_" inkscape:connector-curvature="0" class="st3" d="M265.9,179.1l180,180"/>
			<title  id="title3547">Vector u</title>
			<desc  id="desc3549">Vector u: Vector(H, d1)</desc>
		</g>
	</g>
</g>
<g>
	<g id="g3605_1_">
		<g id="g3603_1_">
			<path id="path3597_1_" inkscape:connector-curvature="0" class="st4" d="M245.4,150c4.7,0,8.6,3.8,8.6,8.6s-3.8,8.6-8.6,8.6
				s-8.6-3.8-8.6-8.6S240.7,150,245.4,150z"/>
			<title  id="title3599">Point d1</title>
			<desc  id="desc3601">d1 = (0.71, 0.71)</desc>
		</g>
	</g>
</g>
<g>
	<g id="g3566_1_">
		<g id="g3564_1_">
			<path id="path3558_1_" inkscape:connector-curvature="0" class="st7" d="M271.1,173.9l-10.3,10.3l-15.4-25.7L271.1,173.9z"/>
			<title  id="title3560">Vector u</title>
			<desc  id="desc3562">Vector u: Vector(H, d1)</desc>
		</g>
	</g>
</g>
<g>
	<g>
		<path class="st8" d="M445.3,272.7c0,0,32.5-4,48,22"/>
		<g>
			<polygon class="st9" points="484,292.9 492.1,292.6 497.5,286.6 498.2,305.6 			"/>
		</g>
	</g>
</g>
<text transform="matrix(1 0 0 1 474.2454 266.7138)" class="st9 st5 st10">45º</text>
<text transform="matrix(1 0 0 1 425.0294 59.8429)" class="st9 st5 st10">N (0º)</text>
<text transform="matrix(1 0 0 1 741.128 367.7909)" class="st9 st5 st10">E (90º)</text>
<text transform="matrix(1 0 0 1 415.1285 679.5708)" class="st9 st5 st10">S (180º)</text>
<text transform="matrix(1 0 0 1 75.3048 367.7907)" class="st9 st5 st10">W (270º)</text>
<text transform="matrix(1 0 0 1 351.2052 349.184)" class="st9 st5 st10">315º</text>
<g>
	<g>
		<path class="st8" d="M444.3,303.6c0,0,46.9,7,46.9,55.9s-44.9,48.9-44.9,48.9s-47.9,11-46.9-49.9c0,0-1.4-8.2,4.3-23.9"/>
		<g>
			<polygon class="st9" points="408.7,342.6 403,336.9 394.9,337 408.4,323.6 			"/>
		</g>
	</g>
</g>
</svg>
